<svg width="18" height="21" viewBox="0 0 18 21" fill="none" xmlns="http://www.w3.org/2000/svg">
    <path fill-rule="evenodd" clip-rule="evenodd" d="M11.4 0.667969H5.7V2.56797H11.4V0.667969ZM7.6 13.018H9.5V7.31797H7.6V13.018ZM15.2285 6.73847L16.5775 5.38947C16.169 4.90497 15.7225 4.44897 15.238 4.04997L13.889 5.39897C12.4165 4.22097 10.564 3.51797 8.55 3.51797C3.8285 3.51797 0 7.34647 0 12.068C0 16.7895 3.819 20.618 8.55 20.618C13.281 20.618 17.1 16.7895 17.1 12.068C17.1 10.054 16.397 8.20147 15.2285 6.73847ZM8.55 18.718C4.8735 18.718 1.9 15.7445 1.9 12.068C1.9 8.39147 4.8735 5.41797 8.55 5.41797C12.2265 5.41797 15.2 8.39147 15.2 12.068C15.2 15.7445 12.2265 18.718 8.55 18.718Z" fill="#7A4537"/>
</svg>
